<svg width="130" height="42" viewBox="0 0 130 42" fill="none" xmlns="http://www.w3.org/2000/svg">
<g id="Hero_MotoCorp_Logo 5" clip-path="url(#clip0_12085_3345)">
<g id="layer1">
<path id="path5328" d="M58.9166 18.0547H49.3201V9.81543H43.2368V32.1825H49.3201V23.2222H58.9166V32.1825H64.9876V9.81543H58.9166V18.0547Z" fill="white"/>
<path id="path5330" d="M73.7512 18.38C74.2609 15.3605 75.9214 13.7833 78.6135 13.7833C81.3362 13.7833 83.1859 15.6428 83.2744 18.38H73.7512ZM78.6471 9.22949C71.9533 9.22949 67.4634 13.8754 67.4634 20.8442C67.4634 28.0922 71.9014 32.6982 78.8394 32.6982C84.3824 32.6982 88.1825 30.142 89.6079 25.3028H83.0424C82.4472 27.0703 81.0584 27.9572 78.9706 27.9572C75.8328 27.9572 73.9465 26.0884 73.7878 22.8388H89.6079C89.6079 22.0532 89.6537 21.777 89.6537 21.4026C89.6537 13.8754 85.4049 9.22949 78.6471 9.22949Z" fill="white"/>
<path id="path5332" d="M99.9963 9.62557C97.8444 10.0552 92.3228 11.7245 92.3228 20.1939V32.1829H98.4762V22.2805C98.4762 18.6135 98.9829 16.892 100.503 15.7812C101.434 15.0324 102.78 14.6182 104.343 14.6182C104.99 14.6182 105.268 14.6673 106.009 14.8023V9.72684C106.009 9.72684 103.555 8.92594 99.9963 9.62557Z" fill="white"/>
<path id="path5334" d="M118.175 28.0462C114.933 28.0462 113.041 25.401 113.041 20.9853C113.041 16.5236 114.893 13.9214 118.175 13.9214C121.407 13.9214 123.26 16.4775 123.26 20.9393C123.26 25.4501 121.407 28.0462 118.175 28.0462ZM118.175 9.22949C111.276 9.23243 106.838 13.8293 106.838 20.9853C106.838 28.0922 111.276 32.6982 118.175 32.6982C125.009 32.6982 129.453 28.0922 129.453 20.9853C129.453 13.8293 125.009 9.22949 118.175 9.22949Z" fill="white"/>
<path id="path5336" d="M26.5868 7.06993L17.0728 0.00292969V20.133L26.5868 13.5017V7.06993Z" fill="white"/>
<path id="path5338" d="M26.5868 35.8535V22.0264L17.0728 28.9031L26.5868 35.8535Z" fill="white"/>
<path id="path5340" d="M0.455566 35.0437L9.97269 41.9972V13.2106L0.455566 6.14355V35.0437Z" fill="white"/>
</g>
</g>
<defs>
<clipPath id="clip0_12085_3345">
<rect width="129" height="42" fill="white" transform="translate(0.455566 0.00292969)"/>
</clipPath>
</defs>
</svg>
